<?xml version="1.0" standalone="no"?><!DOCTYPE svg PUBLIC "-//W3C//DTD SVG 1.1//EN" "http://www.w3.org/Graphics/SVG/1.1/DTD/svg11.dtd"><svg t="1775805932291" class="icon" viewBox="0 0 1024 1024" version="1.1" xmlns="http://www.w3.org/2000/svg" p-id="4790" width="64" height="64" xmlns:xlink="http://www.w3.org/1999/xlink"><path d="M386.688 40.96c42.112 0 84.352 0 126.421333 1.28 20.010667 36.906667 40.832 73.301333 62.421334 109.397333a18454.613333 18454.613333 0 0 1 249.301333 0.170667c20.181333 35.584 40.362667 71.381333 62.592 105.685333-18.602667 38.997333-39.722667 76.501333-61.482667 113.749334-167.381333 1.749333-334.762667 0.128-502.101333 0.768-20.48-35.754667-40.96-71.68-62.293333-106.965334C300.544 188.842667 344.661333 115.370667 386.730667 40.96zM104.448 317.653333c41.6 0.298667 83.072 0.170667 124.501333 0 84.778667 147.584 170.666667 294.826667 250.88 444.970667a2586.88 2586.88 0 0 0-61.44 105.685333c-83.84 1.749333-167.68 0.469333-251.52 0.981334a1764.522667 1764.522667 0 0 0-62.421333-107.178667c19.712-38.485333 40.96-76.373333 62.890667-113.706667C126.037333 574.72 83.626667 501.76 42.666667 427.946667c19.541333-37.376 40.533333-73.941333 61.781333-110.336zM505.685333 824.32c76.117333-131.328 150.058667-264.106667 225.365334-396.16 42.112-0.170667 84.309333-0.170667 126.421333-0.170667 40.192 74.453333 84.138667 146.645333 123.861333 221.354667-20.650667 36.736-41.429333 73.472-62.549333 110.08-41.642667-0.512-83.072-0.512-124.672-0.512-41.472 73.813333-83.712 146.944-125.141333 220.714667-42.069333 0-84.138667 0-126.250667-1.109334-19.669333-35.157333-42.24-68.821333-59.392-105.386666 0.64-18.304 14.805333-32.725333 22.357333-48.768z" fill="#2233ff" p-id="4791"></path></svg>