<?xml version="1.0" standalone="no"?><!DOCTYPE svg PUBLIC "-//W3C//DTD SVG 1.1//EN" "http://www.w3.org/Graphics/SVG/1.1/DTD/svg11.dtd"><svg t="1773716091192" class="icon" viewBox="0 0 1024 1024" version="1.1" xmlns="http://www.w3.org/2000/svg" p-id="7310" width="64" height="64" xmlns:xlink="http://www.w3.org/1999/xlink"><path d="M914.34 85.24H109.66A97.66 97.66 0 0 0 12 182.9v658.2a97.66 97.66 0 0 0 97.66 97.66h804.68A97.66 97.66 0 0 0 1012 841.1V182.9a97.66 97.66 0 0 0-97.66-97.66z m-20 779.8H129.66a44 44 0 0 1-43.95-43.94V336.22h852.58V821.1a44 44 0 0 1-43.95 43.9zM666.8 213.15a39.46 39.46 0 1 1-39.46-39.46 39.46 39.46 0 0 1 39.46 39.46z m243.31 0a39.46 39.46 0 1 1-39.46-39.46 39.46 39.46 0 0 1 39.45 39.46z m-121.65 0A39.46 39.46 0 1 1 749 173.7a39.46 39.46 0 0 1 39.45 39.45z m-613.69 563c12.72 10.91 33.43 10.91 46.15 0l163-139.79a25.42 25.42 0 0 0 0-39.74l-163-139.79c-12.72-10.91-33.43-10.91-46.15 0s-12.72 28.67 0 39.58l140 120.08-140 120.08c-12.72 10.91-12.72 28.67 0 39.58z m64.9 10.69l517 8.1H472.23a33.34 33.34 0 0 1 0-66.69h284.43a33.34 33.34 0 0 1 0 66.69z" fill="#231815" p-id="7311"></path></svg>